<mxfile host="Electron" agent="Mozilla/5.0 (X11; Linux x86_64) AppleWebKit/537.36 (KHTML, like Gecko) draw.io/24.7.8 Chrome/128.0.6613.36 Electron/32.0.1 Safari/537.36" version="24.7.8">
  <diagram name="Page-1" id="crxYYBTNqc0rc9fcnugN">
    <mxGraphModel dx="1769" dy="565" grid="1" gridSize="10" guides="1" tooltips="1" connect="1" arrows="1" fold="1" page="1" pageScale="1" pageWidth="850" pageHeight="1100" math="0" shadow="0">
      <root>
        <mxCell id="0" />
        <mxCell id="1" parent="0" />
        <mxCell id="hqHsxmrpgOh4Vw6Ygkg--1" value="&lt;font style=&quot;font-size: 20px;&quot;&gt;Subweb&lt;/font&gt;" style="swimlane;whiteSpace=wrap;html=1;" vertex="1" parent="1">
          <mxGeometry x="-135" y="120" width="625" height="480" as="geometry" />
        </mxCell>
        <mxCell id="hqHsxmrpgOh4Vw6Ygkg--2" value="&lt;font style=&quot;font-size: 20px;&quot;&gt;Shape index&lt;/font&gt;" style="swimlane;whiteSpace=wrap;html=1;startSize=23;" vertex="1" parent="hqHsxmrpgOh4Vw6Ygkg--1">
          <mxGeometry x="240" y="50" width="200" height="200" as="geometry" />
        </mxCell>
        <mxCell id="hqHsxmrpgOh4Vw6Ygkg--7" value="" style="rhombus;whiteSpace=wrap;html=1;fillColor=#f8cecc;strokeColor=#b85450;" vertex="1" parent="hqHsxmrpgOh4Vw6Ygkg--2">
          <mxGeometry x="10" y="110" width="80" height="80" as="geometry" />
        </mxCell>
        <mxCell id="hqHsxmrpgOh4Vw6Ygkg--23" style="edgeStyle=orthogonalEdgeStyle;rounded=0;orthogonalLoop=1;jettySize=auto;html=1;" edge="1" parent="hqHsxmrpgOh4Vw6Ygkg--2" source="hqHsxmrpgOh4Vw6Ygkg--8">
          <mxGeometry relative="1" as="geometry">
            <mxPoint x="-30" y="70" as="targetPoint" />
          </mxGeometry>
        </mxCell>
        <mxCell id="hqHsxmrpgOh4Vw6Ygkg--8" value="" style="shape=hexagon;perimeter=hexagonPerimeter2;whiteSpace=wrap;html=1;fixedSize=1;fillColor=#d5e8d4;strokeColor=#82b366;" vertex="1" parent="hqHsxmrpgOh4Vw6Ygkg--2">
          <mxGeometry x="95" y="40" width="90" height="60" as="geometry" />
        </mxCell>
        <mxCell id="hqHsxmrpgOh4Vw6Ygkg--9" value="" style="whiteSpace=wrap;html=1;aspect=fixed;fillColor=#ffe6cc;strokeColor=#d79b00;" vertex="1" parent="hqHsxmrpgOh4Vw6Ygkg--2">
          <mxGeometry x="110" y="125" width="65" height="65" as="geometry" />
        </mxCell>
        <mxCell id="hqHsxmrpgOh4Vw6Ygkg--10" value="" style="rhombus;whiteSpace=wrap;html=1;" vertex="1" parent="hqHsxmrpgOh4Vw6Ygkg--1">
          <mxGeometry x="30" y="390" width="80" height="80" as="geometry" />
        </mxCell>
        <mxCell id="hqHsxmrpgOh4Vw6Ygkg--11" value="" style="rhombus;whiteSpace=wrap;html=1;" vertex="1" parent="hqHsxmrpgOh4Vw6Ygkg--1">
          <mxGeometry x="140" y="330" width="80" height="80" as="geometry" />
        </mxCell>
        <mxCell id="hqHsxmrpgOh4Vw6Ygkg--12" value="" style="rhombus;whiteSpace=wrap;html=1;" vertex="1" parent="hqHsxmrpgOh4Vw6Ygkg--1">
          <mxGeometry x="80" y="270" width="80" height="80" as="geometry" />
        </mxCell>
        <mxCell id="hqHsxmrpgOh4Vw6Ygkg--13" value="" style="ellipse;whiteSpace=wrap;html=1;aspect=fixed;" vertex="1" parent="hqHsxmrpgOh4Vw6Ygkg--1">
          <mxGeometry x="330" y="280" width="80" height="80" as="geometry" />
        </mxCell>
        <mxCell id="hqHsxmrpgOh4Vw6Ygkg--15" value="" style="ellipse;whiteSpace=wrap;html=1;aspect=fixed;" vertex="1" parent="hqHsxmrpgOh4Vw6Ygkg--1">
          <mxGeometry x="370" y="370" width="80" height="80" as="geometry" />
        </mxCell>
        <mxCell id="hqHsxmrpgOh4Vw6Ygkg--16" value="" style="ellipse;whiteSpace=wrap;html=1;aspect=fixed;" vertex="1" parent="hqHsxmrpgOh4Vw6Ygkg--1">
          <mxGeometry x="520" y="360" width="80" height="80" as="geometry" />
        </mxCell>
        <mxCell id="hqHsxmrpgOh4Vw6Ygkg--17" value="" style="whiteSpace=wrap;html=1;aspect=fixed;" vertex="1" parent="hqHsxmrpgOh4Vw6Ygkg--1">
          <mxGeometry x="460" y="270" width="80" height="80" as="geometry" />
        </mxCell>
        <mxCell id="hqHsxmrpgOh4Vw6Ygkg--18" value="" style="shape=hexagon;perimeter=hexagonPerimeter2;whiteSpace=wrap;html=1;fixedSize=1;" vertex="1" parent="hqHsxmrpgOh4Vw6Ygkg--1">
          <mxGeometry x="480" y="80" width="120" height="80" as="geometry" />
        </mxCell>
        <mxCell id="hqHsxmrpgOh4Vw6Ygkg--21" style="edgeStyle=orthogonalEdgeStyle;rounded=0;orthogonalLoop=1;jettySize=auto;html=1;entryX=0;entryY=0.5;entryDx=0;entryDy=0;" edge="1" parent="hqHsxmrpgOh4Vw6Ygkg--1" source="hqHsxmrpgOh4Vw6Ygkg--8" target="hqHsxmrpgOh4Vw6Ygkg--18">
          <mxGeometry relative="1" as="geometry" />
        </mxCell>
        <mxCell id="hqHsxmrpgOh4Vw6Ygkg--22" value="&lt;font style=&quot;font-size: 20px;&quot;&gt;Subweb&lt;/font&gt;" style="swimlane;whiteSpace=wrap;html=1;" vertex="1" parent="hqHsxmrpgOh4Vw6Ygkg--1">
          <mxGeometry x="10" y="40" width="200" height="220" as="geometry" />
        </mxCell>
        <mxCell id="hqHsxmrpgOh4Vw6Ygkg--20" value="" style="shape=hexagon;perimeter=hexagonPerimeter2;whiteSpace=wrap;html=1;fixedSize=1;" vertex="1" parent="hqHsxmrpgOh4Vw6Ygkg--22">
          <mxGeometry x="40" y="40" width="120" height="80" as="geometry" />
        </mxCell>
        <mxCell id="hqHsxmrpgOh4Vw6Ygkg--19" value="" style="shape=hexagon;perimeter=hexagonPerimeter2;whiteSpace=wrap;html=1;fixedSize=1;" vertex="1" parent="hqHsxmrpgOh4Vw6Ygkg--22">
          <mxGeometry x="40" y="127.5" width="120" height="80" as="geometry" />
        </mxCell>
        <mxCell id="hqHsxmrpgOh4Vw6Ygkg--25" style="edgeStyle=orthogonalEdgeStyle;rounded=0;orthogonalLoop=1;jettySize=auto;html=1;entryX=0.5;entryY=0;entryDx=0;entryDy=0;" edge="1" parent="hqHsxmrpgOh4Vw6Ygkg--1" source="hqHsxmrpgOh4Vw6Ygkg--9" target="hqHsxmrpgOh4Vw6Ygkg--17">
          <mxGeometry relative="1" as="geometry">
            <Array as="points">
              <mxPoint x="500" y="200" />
            </Array>
          </mxGeometry>
        </mxCell>
        <mxCell id="hqHsxmrpgOh4Vw6Ygkg--30" style="edgeStyle=orthogonalEdgeStyle;rounded=0;orthogonalLoop=1;jettySize=auto;html=1;entryX=1;entryY=0.5;entryDx=0;entryDy=0;" edge="1" parent="hqHsxmrpgOh4Vw6Ygkg--1" source="hqHsxmrpgOh4Vw6Ygkg--7" target="hqHsxmrpgOh4Vw6Ygkg--12">
          <mxGeometry relative="1" as="geometry">
            <Array as="points">
              <mxPoint x="290" y="310" />
            </Array>
          </mxGeometry>
        </mxCell>
        <mxCell id="hqHsxmrpgOh4Vw6Ygkg--31" style="edgeStyle=orthogonalEdgeStyle;rounded=0;orthogonalLoop=1;jettySize=auto;html=1;entryX=1;entryY=0.5;entryDx=0;entryDy=0;" edge="1" parent="hqHsxmrpgOh4Vw6Ygkg--1" source="hqHsxmrpgOh4Vw6Ygkg--7" target="hqHsxmrpgOh4Vw6Ygkg--11">
          <mxGeometry relative="1" as="geometry">
            <Array as="points">
              <mxPoint x="290" y="370" />
            </Array>
          </mxGeometry>
        </mxCell>
        <mxCell id="hqHsxmrpgOh4Vw6Ygkg--32" style="edgeStyle=orthogonalEdgeStyle;rounded=0;orthogonalLoop=1;jettySize=auto;html=1;entryX=1;entryY=0.5;entryDx=0;entryDy=0;" edge="1" parent="hqHsxmrpgOh4Vw6Ygkg--1" source="hqHsxmrpgOh4Vw6Ygkg--7" target="hqHsxmrpgOh4Vw6Ygkg--10">
          <mxGeometry relative="1" as="geometry">
            <Array as="points">
              <mxPoint x="290" y="430" />
            </Array>
          </mxGeometry>
        </mxCell>
      </root>
    </mxGraphModel>
  </diagram>
</mxfile>
